<svg width="24" height="24" viewBox="0 0 24 24" fill="none" xmlns="http://www.w3.org/2000/svg">
<g clip-path="url(#clip0_40000384_5856)">
<path d="M11.212 5.60599C11.212 2.51212 8.70089 0 5.6048 0C2.50941 0 0 2.50894 0 5.60278C0 8.69662 2.50936 11.212 5.60618 11.212H11.212L11.212 5.60599Z" fill="#228800"/>
<path d="M12.7881 5.60599C12.7881 2.51212 15.2992 0 18.3953 0C21.4907 0 24.0001 2.50894 24.0001 5.6028C24.0001 8.69662 21.4907 11.212 18.3939 11.212H12.7881L12.7881 5.60599Z" fill="#228800"/>
<path d="M12.7881 18.394C12.7881 21.4909 15.2985 24 18.3958 24C21.4897 24 24.0001 21.4927 24.0001 18.3958C24.0001 15.3019 21.4897 12.788 18.3938 12.788L12.7881 12.788V18.394Z" fill="#228800"/>
<path d="M11.212 18.394C11.212 21.4909 8.70162 24 5.6043 24C2.51039 24 0 21.4927 0 18.3958C0 15.3019 2.51034 12.788 5.6062 12.788H11.212V18.394ZM5.6043 22.4192C7.82923 22.4192 9.63935 20.6143 9.63935 18.3958V14.3615H5.60941C3.38348 14.3615 1.57243 16.1783 1.57243 18.3958C1.57243 20.6143 3.38105 22.4192 5.6043 22.4192Z" fill="#228800"/>
</g>
<defs>
<clipPath id="clip0_40000384_5856">
<rect width="24" height="24" fill="white"/>
</clipPath>
</defs>
</svg>
