<svg width="24" height="24" viewBox="0 0 24 24" fill="none" xmlns="http://www.w3.org/2000/svg">
<path d="M14.1429 18.0612V13.1633C14.1429 12.8063 14.1429 12.4716 14.1429 12.1834C14.1429 11.6424 14.5814 11.2041 15.1224 11.2041H20.0204C20.5614 11.2041 21 11.6424 21 12.1834C21 12.4716 21 12.8063 21 13.1633V18.0612M14.1429 18.0612V19.0408C14.1429 19.3978 14.1429 19.7325 14.1429 20.0207C14.1429 20.5617 14.5814 21 15.1224 21H20.0204C20.5614 21 21 20.5617 21 20.0207C21 19.7325 21 19.3978 21 19.0408V18.0612M14.1429 18.0612H21M4.83673 12.1837V4.22449C4.83673 3.89974 4.96575 3.58828 5.19538 3.35864C5.42501 3.12901 5.73647 3 6.06122 3H18.3061C18.6309 3 18.9424 3.12901 19.172 3.35864C19.4016 3.58828 19.5306 3.89974 19.5306 4.22449V9.12245M11.7959 12.1837H3C3 12.9956 3.32252 13.7742 3.89661 14.3483C4.4707 14.9224 5.24934 15.2449 6.06122 15.2449H10.5714" stroke="white" stroke-width="1.5" stroke-linecap="round" stroke-linejoin="round"/>
</svg>
