<svg width="263" height="41" viewBox="0 0 263 41" fill="none" xmlns="http://www.w3.org/2000/svg">
<path d="M5 35.4037H35M35 13.9753H5L18.8414 5.74389C19.187 5.52178 19.5892 5.40369 20 5.40369C20.4108 5.40369 20.813 5.52178 21.1586 5.74389L35 13.9753Z" stroke="black" stroke-width="1.5" stroke-linecap="round" stroke-linejoin="round"/>
<path d="M32.0002 18.4037V30.4037H28.0001V18.4037M22.0001 18.4037V30.4037H18.0001V18.4037M12 18.4037V30.4037H8V18.4037" stroke="#228800" stroke-width="1.5" stroke-linecap="round" stroke-linejoin="round"/>
<line x1="53.5" y1="0.403687" x2="53.5" y2="40.4037" stroke="#E5E5E5"/>
<rect x="66" y="6.80127" width="39.307" height="27.2049" rx="2" fill="#EEEEEE"/>
<path d="M78.4845 15.3036L76.2732 22.1503C76.2732 22.1503 75.7116 19.2541 75.656 18.8904C74.3971 15.9086 72.5396 16.0747 72.5396 16.0747L74.7289 24.9198V24.9181H77.3906L81.0713 15.3036H78.4845ZM80.5921 24.9198H83.0097L84.4715 15.3036H82.0236L80.5921 24.9198ZM97.7019 15.3036H95.1581L91.192 24.9198H93.5935L94.0886 23.5464H97.1167L97.3744 24.9198H99.5747L97.7019 15.3036ZM94.7589 21.7097L96.0751 18.0757L96.7639 21.7097H94.7589ZM87.9012 18.1063C87.9012 17.5765 88.3206 17.1823 89.523 17.1823C90.3044 17.1823 91.1996 17.7715 91.1996 17.7715L91.5919 15.7529C91.5919 15.7529 90.4484 15.3027 89.326 15.3027C86.7838 15.3027 85.4727 16.5651 85.4727 18.1631C85.4727 21.0532 88.8233 20.6572 88.8233 22.1416C88.8233 22.396 88.6287 22.9843 87.2335 22.9843C85.834 22.9843 84.9102 22.4519 84.9102 22.4519L84.4934 24.3892C84.4934 24.3892 85.3885 24.9189 87.1181 24.9189C88.8519 24.9189 91.2568 23.5727 91.2568 21.6389C91.2568 19.3127 87.9012 19.1448 87.9012 18.1063Z" fill="#1434CB"/>
<path d="M75.9712 20.4978L75.1578 16.3471C75.1578 16.3471 74.7898 15.4475 73.8332 15.4475C72.8766 15.4475 70.0945 15.4475 70.0945 15.4475C70.0945 15.4475 74.8614 16.9092 75.9712 20.4978Z" fill="#1434CB"/>
<rect x="118.307" y="6.80127" width="39.307" height="27.2049" rx="2" fill="#141414"/>
<path d="M141.498 26.916H134.412V13.6962H141.498L141.498 26.916Z" fill="#FF5F00"/>
<path d="M134.867 20.3096C134.867 17.628 136.077 15.2392 137.96 13.6997C136.534 12.5327 134.771 11.8993 132.956 11.9021C128.484 11.9021 124.858 15.6662 124.858 20.3096C124.858 24.953 128.484 28.7172 132.956 28.7172C134.771 28.72 136.535 28.0866 137.96 26.9196C136.077 25.3804 134.867 22.9914 134.867 20.3096Z" fill="#EB001B"/>
<path d="M151.063 20.3096C151.063 24.953 147.438 28.7172 142.966 28.7172C141.15 28.7199 139.387 28.0866 137.961 26.9196C139.845 25.3801 141.054 22.9914 141.054 20.3096C141.054 17.6279 139.845 15.2392 137.961 13.6997C139.387 12.5327 141.15 11.8994 142.966 11.9021C147.438 11.9021 151.063 15.6662 151.063 20.3096" fill="#F79E1B"/>
<rect x="170.614" y="6.80127" width="39.307" height="27.2049" rx="2" fill="#006FCF"/>
<path d="M176.952 15.9387L173.071 24.8565H177.718L178.294 23.4346H179.61L180.187 24.8565H185.301V23.7713L185.757 24.8565H188.403L188.859 23.7483V24.8565H199.496L200.79 23.4715L202.001 24.8565L207.465 24.8679L203.571 20.4225L207.465 15.9387H202.086L200.826 17.2981L199.653 15.9387H188.081L187.088 18.2405L186.071 15.9387H181.433V16.987L180.918 15.9387C180.918 15.9387 176.952 15.9387 176.952 15.9387ZM177.852 17.2051H180.117L182.691 23.2522V17.2051H185.173L187.161 21.5409L188.994 17.2051H191.463V23.6041H189.961L189.948 18.5899L187.758 23.6041H186.414L184.212 18.5899V23.6041H181.121L180.535 22.1695H177.37L176.785 23.6029H175.129L177.852 17.2051ZM192.837 17.2051H198.946L200.814 19.3002L202.743 17.2051H204.611L201.772 20.4212L204.611 23.6004H202.658L200.79 21.4808L198.851 23.6004H192.837V17.2051ZM178.953 18.2877L177.911 20.8433H179.995L178.953 18.2877ZM194.346 18.53V19.6981H197.678V21.0001H194.346V22.2754H198.084L199.821 20.397L198.157 18.5289H194.346V18.53Z" fill="white"/>
<rect x="222.921" y="6.80127" width="39.307" height="27.2049" rx="2" fill="#EEEEEE"/>
<path d="M246.672 20.3873C246.675 19.6193 246.397 18.8502 245.839 18.2706C245.28 17.6898 244.537 17.4021 243.796 17.4067C243.792 17.4067 243.789 17.4065 243.785 17.4065C242.175 17.4065 240.898 18.7318 240.898 20.4034C240.898 22.0586 242.191 23.4002 243.785 23.4002C245.395 23.4002 246.672 22.0746 246.672 20.4034C246.672 20.3979 246.672 20.3928 246.672 20.3873Z" fill="#F26E21"/>
<path d="M240.364 21.6725C239.932 22.1209 239.534 22.2961 239.105 22.3056C238.06 22.2958 237.292 21.4924 237.292 20.3471C237.292 19.7705 237.502 19.2979 237.835 18.8942C238.148 18.5864 238.55 18.3874 239.013 18.3874C239.512 18.3874 239.901 18.5603 240.345 19.0214V17.6958C239.901 17.4654 239.512 17.3501 239.013 17.3501C238.307 17.4025 237.642 17.6985 237.131 18.1633C236.984 18.3007 236.843 18.4524 236.724 18.626C236.351 19.1276 236.126 19.7419 236.126 20.4049C236.126 22.076 237.403 23.3439 239.013 23.3439C239.021 23.3439 239.028 23.3432 239.036 23.3431C239.047 23.3433 239.057 23.3439 239.068 23.3439C239.512 23.3439 239.901 23.2289 240.401 22.9983L240.364 21.6725C240.345 21.6919 240.382 21.71 240.364 21.7284V21.6725Z" fill="#141414"/>
<path d="M250.315 18.1761L249.058 21.385L247.614 17.5809H246.448L248.724 23.4019H249.335L251.722 17.5809H250.557L250.315 18.1761Z" fill="#141414"/>
<path d="M252.168 20.1169V23.2293H255.166H255.221V22.3068H254.277H253.278V21.2697V20.7511H255.166V19.7711H253.278V18.5609H255.221V17.5809H252.168V20.1169Z" fill="#141414"/>
<path d="M227.076 17.5809H225.522V23.2293H227.076C227.909 23.2293 228.52 22.9986 229.019 22.5951C229.63 22.0764 230.018 21.2698 230.018 20.4054C230.019 18.7336 228.853 17.5809 227.076 17.5809ZM228.353 21.8461C228.02 22.1341 227.576 22.3068 226.91 22.3068H226.577V18.5608H226.854C227.52 18.5608 227.964 18.676 228.298 19.0217C228.686 19.3673 228.908 19.8863 228.908 20.4052C228.964 20.9239 228.742 21.4999 228.353 21.8461Z" fill="#141414"/>
<path d="M231.573 17.5792H230.518V23.2275H231.573V17.5792Z" fill="#141414"/>
<path d="M234.239 19.7703C233.573 19.5398 233.407 19.3667 233.407 19.0787C233.407 18.7329 233.74 18.4447 234.184 18.4447C234.517 18.4447 234.794 18.5601 235.072 18.9059L235.627 18.1567C235.183 17.7531 234.628 17.5228 234.017 17.5228C233.073 17.5228 232.296 18.2145 232.296 19.1363C232.296 19.9434 232.63 20.2891 233.629 20.6926C234.073 20.8652 234.239 20.9231 234.351 21.0383C234.572 21.1534 234.684 21.3842 234.684 21.6144C234.684 22.0756 234.351 22.4215 233.851 22.4215C233.351 22.4215 232.907 22.1334 232.685 21.6722L232.019 22.3639C232.518 23.1131 233.129 23.4588 233.906 23.4588C235.016 23.4588 235.793 22.7096 235.793 21.6144C235.793 20.6349 235.461 20.2314 234.239 19.7703Z" fill="#141414"/>
<path d="M258.219 20.866C259.051 20.6934 259.495 20.1168 259.495 19.2525C259.495 18.2153 258.774 17.5809 257.552 17.5809H255.942V23.2293H256.997V20.9813H257.164L258.662 23.2293H259.939L258.219 20.866ZM257.33 20.1743H256.997V18.4455H257.33C257.996 18.4455 258.385 18.7336 258.385 19.3103C258.385 19.8864 257.996 20.1743 257.33 20.1743Z" fill="#141414"/>
</svg>
