<svg width="24" height="24" viewBox="0 0 24 24" fill="none" xmlns="http://www.w3.org/2000/svg">
<path d="M14.4305 20.302L14.4401 20.3076C15.2897 20.8485 16.2984 21.0834 17.2996 20.9736C18.3007 20.8638 19.2345 20.4158 19.9467 19.7036L20.5658 19.0845C20.8423 18.8076 20.9977 18.4323 20.9977 18.041C20.9977 17.6497 20.8423 17.2744 20.5658 16.9975L17.9573 14.3906C17.6804 14.1141 17.3051 13.9588 16.9138 13.9588C16.5225 13.9588 16.1472 14.1141 15.8703 14.3906C15.7334 14.5277 15.5708 14.6365 15.3918 14.7107C15.2129 14.7849 15.021 14.8231 14.8273 14.8231C14.6335 14.8231 14.4416 14.7849 14.2627 14.7107C14.0837 14.6365 13.9211 14.5277 13.7842 14.3906L9.61023 10.2159C9.33371 9.93901 9.17839 9.56371 9.17839 9.1724C9.17839 8.78109 9.33371 8.40579 9.61023 8.12892C9.74732 7.992 9.85608 7.8294 9.93028 7.65042C10.0045 7.47144 10.0427 7.27959 10.0427 7.08583C10.0427 6.89208 10.0045 6.70023 9.93028 6.52125C9.85608 6.34227 9.74732 6.17967 9.61023 6.04275L7.00253 3.43184C6.72566 3.15532 6.35035 3 5.95904 3C5.56773 3 5.19243 3.15532 4.91556 3.43184L4.29643 4.05097C3.58437 4.7632 3.13641 5.6969 3.02647 6.698C2.91653 7.6991 3.15118 8.70777 3.6917 9.55756L3.69809 9.56716C6.5565 13.7985 10.1997 17.4426 14.4305 20.302Z" stroke="white" stroke-width="1.5" stroke-linecap="round" stroke-linejoin="round"/>
</svg>
