<svg width="24" height="24" viewBox="0 0 24 24" fill="none" xmlns="http://www.w3.org/2000/svg">
<path fill-rule="evenodd" clip-rule="evenodd" d="M10.8368 4.34779C11.1339 4.67754 11.5569 4.86581 12.0007 4.86581C12.4445 4.86581 12.8675 4.67754 13.1646 4.34779L13.9219 3.51689C14.3666 3.02471 15.0729 2.86558 15.6857 3.11951C16.2985 3.37344 16.6852 3.98549 16.6515 4.64797L16.5947 5.76864C16.5724 6.21072 16.7382 6.64159 17.0509 6.95482C17.3637 7.26804 17.7943 7.43441 18.2365 7.41283L19.3571 7.35599C20.0192 7.32335 20.6302 7.71049 20.8835 8.32302C21.1368 8.93556 20.9776 9.64119 20.4858 10.0856L19.6517 10.8381C19.3224 11.1356 19.1344 11.5586 19.1344 12.0024C19.1344 12.4462 19.3224 12.8692 19.6517 13.1667L20.4858 13.9191C20.978 14.3638 21.1371 15.0701 20.8832 15.683C20.6293 16.2958 20.0172 16.6825 19.3547 16.6488L18.2341 16.5919C17.791 16.5691 17.359 16.7352 17.0453 17.0489C16.7315 17.3627 16.5655 17.7946 16.5883 18.2377L16.6451 19.3584C16.6745 20.0174 16.2883 20.6243 15.6789 20.8768C15.0696 21.1294 14.3673 20.9736 13.9219 20.4871L13.1686 19.6538C12.8713 19.3245 12.4484 19.1365 12.0047 19.1365C11.561 19.1365 11.1381 19.3245 10.8408 19.6538L10.0844 20.4871C9.63962 20.9759 8.93611 21.1335 8.32534 20.881C7.71458 20.6285 7.32767 20.0202 7.35793 19.36L7.41556 18.2393C7.43835 17.7962 7.27229 17.3643 6.95857 17.0505C6.64485 16.7368 6.21286 16.5707 5.76977 16.5935L4.6491 16.6504C3.98689 16.6849 3.37459 16.299 3.12009 15.6867C2.8656 15.0744 3.02399 14.3681 3.51562 13.9231L4.34892 13.1707C4.67826 12.8732 4.8662 12.4502 4.8662 12.0064C4.8662 11.5626 4.67826 11.1396 4.34892 10.8421L3.51562 10.0856C3.02564 9.64116 2.86748 8.93691 3.12036 8.32561C3.37325 7.71431 3.98271 7.32761 4.6435 7.35919L5.76417 7.41603C6.20811 7.43937 6.64108 7.27309 6.95528 6.95859C7.26947 6.64409 7.43533 6.21096 7.41156 5.76704L7.35793 4.64557C7.32694 3.98506 7.71359 3.3761 8.32454 3.12318C8.93548 2.87027 9.63943 3.02775 10.0844 3.51689L10.8368 4.34779Z" stroke="#228800" stroke-width="1.5" stroke-linecap="round" stroke-linejoin="round"/>
<path fill-rule="evenodd" clip-rule="evenodd" d="M12.0007 15.6051C13.9901 15.6051 15.6029 13.9924 15.6029 12.003C15.6029 10.0136 13.9901 8.40081 12.0007 8.40081C10.0113 8.40081 8.39855 10.0136 8.39855 12.003C8.39855 13.9924 10.0113 15.6051 12.0007 15.6051Z" stroke="#228800" stroke-width="1.5" stroke-linecap="round" stroke-linejoin="round"/>
</svg>
